# xmcd CD database file
#
# Track frame offsets:
#	150
#	32125
#	74165
#	114477
#	157793
#	188903
#	216797
#	251217
#	286952
#
# Disc length: 4101 seconds
#
# Revision: 0
# Processed by: cddbd v1.4PL0 Copyright (c) Steve Scherf et al.
# Submitted via: CDex 1.50
#
DISCID=86100309
DTITLE=Cornelius Claudio Kreusch - Black Mud Sound
DYEAR=1995
DGENRE=Jazz
TTITLE0=SO!
TTITLE1=WAY:OUT
TTITLE2=NUBIAN QUEEN
TTITLE3=WHAT?
TTITLE4=MOPTI
TTITLE5=DEEP TALK
TTITLE6=UPFRONT (AND REST)
TTITLE7=JUNGLE/BLACK
TTITLE8=SO-FAR...
EXTD=YEAR: 1995
EXTT0=
EXTT1=
EXTT2=
EXTT3=
EXTT4=
EXTT5=
EXTT6=
EXTT7=
EXTT8=
PLAYORDER=
